/* XPM */
static char *_213b7eb4e6949d88da8f029b4d1a82c1UZaZh9d7VsUaV0l[] = {
/* columns rows colors chars-per-pixel */
"32 32 10 1 ",
"  c #337803",
". c #317105",
"X c #337504",
"o c #1A7231",
"O c #196F30",
"+ c #357B05",
"@ c #1B7735",
"# c #306D05",
"$ c #1D7C37",
"% c #1E7F38",
/* pixels */
"  ..XXoo   X O    OOOooo   X X  ",
"X..XXXXoo   OOOO    ooooo   XXXX",
"XX++++oooooOOOo    ooooooooXXXXX",
"X +++ooo@@@@@OooooOOooooooXXXXXX",
"X   ooOO@@@@OOo@XXXXoooo@@oo++++",
"       @@@    @XXXXoooOo@@o..+++",
"  O   @@@@o    XXX#   Oo@@@o..+ ",
" OO  OO$$ooo   XX#   oo$$@@   . ",
" Oo oo$$oo@@o  Xo   ooo$oooo   X",
"Ooo@$$$oo@@@@@ oooOOOo$oo@@oo   ",
"Ooo@@@$$@@@@@@@ooo@@@@$$@@@@ooXX",
"ooXXX$$oo@@oo@%%%%O@@$$ooo@XX@@X",
"oXXXoo@@$$$$o%%%%OO@@@@@ooooXX@+",
".XXoXX@@o$$$$%%%oo@@@@@@@ooooXo+",
".XoXXo@@oo$$$$$o%%%%O@@@@@@@oOOO",
".ooXoo@$$$@$$$@$$%%OO@@$$@@@oooO",
"ooooo@@o$$$@$@$$$$oo@@@o$$@@$ooo",
"  o@@@@@o$$$@@@@@oo@@@@@o$oooo o",
" oooO@@@@@@@@@@@@@%%%%o@@@@oOO O",
"#ooooOoo@@@@@@@@@$%%%OO@@@OOOooO",
"++++oo@o@@@@%%%%@$$$oo@@@Oo++++O",
" ++oo@Oo@@@oo%%%$$$$$$$o@@oo+++ ",
"  oo@OOo@@@@oo%$$$@$$$oo@@@oo+  ",
"   oOoo$$@@$$$o$$@@$$o$$$@$$OO  ",
"  oooo$$oo@o$$$@$@@$@$$$oo@$XXX ",
"ooo@o$$oo@@@@$$$@@@@$$$oo@@@oXXX",
"ooo@@@$$@@@@@@@@@@@@@@$$@@@@ooXX",
"++O@@$$o@@@@@@@o@@@@@oooo@@ooo++",
"+OOo@@@@@@oOOoooooo@oo@@$$ooo+++",
"oo@oo@@@@    @@@o@ooooooo   X+++",
"++++O@@@@o    @oo@@oooo@oo     .",
" ++OO$@$$oo   O   ooo@@$+++   X "
};
