/* XPM */
static char *c4b324d34ddb43f988c33deda5fee28aoNWgyVX9wfQMyocm[] = {
/* columns rows colors chars-per-pixel */
"32 32 17 1 ",
"  c #337803",
". c #317105",
"X c #337504",
"o c #1A7231",
"O c #196F30",
"+ c #357B05",
"@ c #1B7735",
"# c #141412",
"$ c #5C8EA5",
"% c #3B535E",
"& c #523D2A",
"* c #332520",
"= c #6E4B2C",
"- c #306D05",
"; c #281818",
": c #3D3122",
"> c #1D7C37",
/* pixels */
"  ..XXoo   X O    OOOooo   X X  ",
"X..XXXXoo   OOOO    ooooo   XXXX",
"XX++++oooooOOOo    ooooooooXXXXX",
"X +++ooo@@@@@OooooOOooooooXXXXXX",
"X ####OO@@@@OOo@XXXXoooo@@####++",
" #$$$%########$$$$########%$$$#+",
" #%&&%%%%%%$$$%##%$$$%%%%%%&&%# ",
" #&###########$##$###########&# ",
" #&###########$%%$###########&#X",
"O#&############$$############&# ",
"O#&##########################&#X",
"o#&##########################&#X",
"o#&##########################&#+",
".#&&&&$$*&&&&&&&&&&&&&&*$$&&&&#+",
".#####%%################%%#####O",
".#====$$&==============&$$====#O",
"o#=##########################=#o",
" #=##########################=#o",
" #=##########################=#O",
"-#=##########################=#O",
"+#=%%######################%%=#O",
" #===%%%%%%%$$$##$$$%%%%%%%===# ",
" ;*==**::******%%******::**==*# ",
" ;*==:&&&&&&&&&&&&&&&&&&&&:==*# ",
" ;*==:&&&&&&&&&&&&&&&&&&&&:==*# ",
"o;*==:&&&&&&&&&&&&&&&&&&&&:==*#X",
"o;*==::::::**********::::::==*#X",
"+;*==:&&&&&&&&&&&&&&&&&&&&:==*#+",
"+;*==:&&&&&&&&&&&&&&&&&&&&:==*#+",
"o;*==:&&&&&&&&&&&&&&&&&&&&:==*#+",
"++#**######################**# .",
" ++OO>@>>oo   O   ooo@@>+++   X "
};
