/* XPM */
static char *c9df2574320a48b2a7cfe070d34ff613tlmVbVW4Sz8oVFrp[] = {
/* columns rows colors chars-per-pixel */
"32 32 18 1 ",
"  c #337803",
". c #317105",
"X c #337504",
"o c #1A7231",
"O c #196F30",
"+ c #357B05",
"@ c #1B7735",
"# c #306D05",
"$ c #1D7C37",
"% c #281818",
"& c #141412",
"* c #8E5E34",
"= c #523D2A",
"- c #3D3122",
"; c #6E4B2C",
": c #5C8EA5",
"> c #3B535E",
", c #332520",
/* pixels */
"  ..XXoo   X O    OOOooo   X X  ",
"X..XXXXoo   OOOO    ooooo   XXXX",
"XX++++oooooOOOo    ooooooooXXXXX",
"X +++ooo@@@@@OooooOOooooooXXXXXX",
"X   ooOO@@@@OOo@XXXXoooo@@oo++++",
"       @@@    @XXXXoooOo@@o..+++",
"  O   @@@@o    XXX#   Oo@@@o..+ ",
" OO  OO$$ooo   XX#   oo$$@@   . ",
" Oo oo$$oo@@o  Xo   ooo$oooo   X",
"Ooo%%$$oo@@@@@ oooOOOo$oo@@&&   ",
"Oo%**&&&&&&&&&&&&&&&&&&&&&&**&XX",
"o%=**-====================-**=&X",
"o%=**-=;=;=;=;;;;;;;;;;;;=-**=&+",
".%=**-=;;;;;;;;;;;;;;;;;;=-**=&+",
".%=**-=;;;;;;;;;;;;;;;;===-**=&O",
".%=**-=;;;;;;;;;;;;;;;;;;=-**=&O",
"o%=**-=;;;;;;;;;;;;;;;;;;=-**=&o",
" %=**%=;;;;;;;;;;;;;;;;;;=%**=&o",
" %-;;%--================--%;;-&O",
"#%:;;>>>::::::::::::::::>>>;;:&O",
"+%:::>,--,,,,,>%%>,,,,,--,>:::&O",
" %,==-=======-:%%:-=======-==,& ",
" %,;;-=======-:>>:-=======-;;,& ",
" %,;;-=======--::--=======-;;,& ",
" %,;;------,,,,,,,,,,------;;,& ",
"o%,;;-====================-;;,&X",
"o%,;;-====================-;;,&X",
"+%,;;-====================-;;,&+",
"+O&,,&&&&&&&&&&&&&&&&&&&&&&,,&++",
"oo@oo@@@@    @@@o@ooooooo   X+++",
"++++O@@@@o    @oo@@oooo@oo     .",
" ++OO$@$$oo   O   ooo@@$+++   X "
};
