/* XPM */
static char *_1147399b38a4e8ed237a438c81f74b5db8Sa0TaFh832TzS[] = {
/* columns rows colors chars-per-pixel */
"32 32 19 1 ",
"  c black",
". c #141412",
"X c #261A26",
"o c #47280D",
"O c #306D05",
"+ c #317105",
"@ c #337504",
"# c #337803",
"$ c #357B05",
"% c #196F30",
"& c #1A7231",
"* c #1B7735",
"= c #1D7C37",
"- c #432341",
"; c #5F2E5C",
": c #804A1E",
"> c #F09A53",
", c #932D8B",
"< c #FDFDFD",
/* pixels */
"##++@@&&###@......%%%&&&###@#@##",
"@++@@@@&&##X,,,,,;.#&&&&&###@@@@",
"@@$$$$&&&&&X;,,,,,,.&&&&&&&@@@@@",
"@#$$$&&&***XX;,,,,,,.&&&&&@@@@@@",
"@###&&%%***X;,,,,,;;;.&&**&&$$$$",
"#######***#X,,,,,,,,,,.&**&++$$$",
"##%###****X:::::>>>>>>>.***&++$#",
"#%%##%%==XX:::::>>>>>>>>..*###+#",
"#%&#&&=XX;;;;;;;,;,,,,,,,,..###@",
"%&&*=XX;;;;;;;;;,;,,,,,,,,,,.###",
"%&&*X;;;;,,,,,,         .....&@@",
"&&@@XXXXXXX      <<<<<<< &*@@**@",
"&@@@&&**==.<<<<<<<<<<<< &&&&@@*$",
"+@@&@@**&=.<<<<<<<<<<<< *&&&&@&$",
"+@&@@&**&&.<<<<<<<<<<<<.****&%%%",
"+&&@&&*==.,,,;<<<<<,,,,.=***&&&%",
"&&&&&**&.,,,,,;,,,,,,,,..=**=&&&",
"##&*****.,,,,,;,,,,,,,,..=&&&&#&",
"#&&&%***.,,,,,;,,,,,,,,..**&%%#%",
"O&&&&%&&*.,,,;;,,,,,,,,..*%%%&&%",
"$$$$&&*&**..--;;,,,,,,,.*%&$$$$%",
"#$$&&*%&***.---;;,,,,,,.**&&$$$#",
"##&&*%%&****.o:::>:>>>>.***&&$##",
"###&%&&==**=.o:::>:>>>>.=*==%%##",
"##&&&&==&&*&..--;-;-;;;.&&*=@@@#",
"&&&*&==&&***..,,;,,,,,,.&***&@@@",
"&&&***==***.-;,,;,,,,,,;.***&&@@",
"$$%**==&***.;;,,,,,,,,,;.**&&&$$",
"$%%&******&.;;,,,,,,,,,,.=&&&$$$",
"&&*&&****#.-;,,,,,,,,,,,.###@$$$",
"$$$$%****&.;;,,,;,,,,,,,.&#####+",
"#$$%%=*==--;;,,,;,,,,,,,;.$###@#"
};
