/* XPM */
static char *_46f136fb27b49e2b3d344f1fab8d2fbPeafKIIUAiAPuPSR[] = {
/* columns rows colors chars-per-pixel */
"32 32 21 1 ",
"  c #337803",
". c #337504",
"X c #1A7231",
"o c #196F30",
"O c #141412",
"+ c #317105",
"@ c #5F2E5C",
"# c #932D8B",
"$ c #261A26",
"% c #357B05",
"& c #1B7735",
"* c #F09A53",
"= c #804A1E",
"- c #1D7C37",
"; c #7C6C5E",
": c #47280D",
"> c #463D35",
", c #CBC3BC",
"< c #FDFDFD",
"1 c #306D05",
"2 c #432341",
/* pixels */
"  . .   XXXoooOOOOOO.   XX..++  ",
"....   XXXXX O@#####$  XX....++.",
".....XXXXXXXO######@$XXXXX%%%%..",
"......XXXXXO######@$$&&&XXX%%% .",
"%%%%XX&&XXO@@@#####@$&&&ooXX   .",
"%%%++X&&XO##########$ &&&       ",
" %++X&&&O*******=====$&&&&   o  ",
" +   &OO********=====$$--oo  oo ",
".   OO########@#@@@@@@@$$-XX Xo ",
"   O##########@#@@@@@@@@@$$-&XXo",
"..XOOOOO;;===::>>######@@@@$&XXo",
".&&..&XO;;*****;;;;;;$$$$$$$..XX",
"%&..XXXXOO*****=,<<<<O--&&XX...X",
"%X.XXXX&&O******,<<<<O-X&&..X..+",
"oooX&&&&O,<<<,*,,<<<<OXX&&X..X.+",
"oXXX&&&-O<===<<,,<@###O--&XX.XX+",
"XXX-&&-OO<<<<<<,,@#####OX&&XXXXX",
"X XXXX-OO<<<<<<##@#####O&&&&&X  ",
"o ooX&&OO<<<<<<##@#####O&&&oXXX ",
"oXXooo&OO<<<<<<##@@###O&XXoXXXX1",
"o%%%%Xo&O<<<<<,#@@22OO&&X&XX%%%%",
" %%%XX&&O,<<<,#@@222O&&&Xo&XX%% ",
"  %XX&&&O****=*===:O&&&&Xoo&XX  ",
"  oo--&-O****=*===:O-&&--XXoX   ",
" ...-&XXO@@@2@2@22OOX&XX--XXXX  ",
"...X&&&XO######@##OO&&&XX--X&XXX",
"..XX&&&O@######@##@2O&&&--&&&XXX",
"%%XXX&&O@#########@@O&&&X--&&o%%",
"%%%XXX-O##########@@OX&&&&&&Xoo%",
"%%%.   O###########@2O &&&&XX&XX",
"+     XO#######@###@@OX&&&&o%%%%",
" .   %O@#######@###@@22--&-oo%% "
};
