/* XPM */
static char *result[] = {
/* columns rows colors chars-per-pixel */
"32 32 28 1 ",
"  c #337803",
". c #317105",
"X c #337504",
"o c #1A7231",
"O c #141412",
"+ c #196F30",
"@ c #261A26",
"# c #932D8B",
"$ c #5F2E5C",
"% c #357B05",
"& c #1B7735",
"* c #804A1E",
"= c #F09A53",
"- c #1D7C37",
"; c #281818",
": c #8E5E34",
"> c black",
", c #523D2A",
"< c white",
"1 c #3D3122",
"2 c #6E4B2C",
"3 c #FDFDFD",
"4 c #306D05",
"5 c #5C8EA5",
"6 c #3B535E",
"7 c #332520",
"8 c #432341",
"9 c #47280D",
/* pixels */
"  ..XXoo   XOOOOOO+++ooo   X X  ",
"X..XXXXoo  @#####$O ooooo   XXXX",
"XX%%%%ooooo@$######OoooooooXXXXX",
"X %%%ooo&&&@@$######OoooooXXXXXX",
"X   oo++&&&@$#####$$$Ooo&&oo%%%%",
"       &&& @##########Oo&&o..%%%",
"  +   &&&&@*****=======O&&&o..% ",
" ++  ++--@@*****========OO&   . ",
" +o oo-@@$$$$$$$#$########OO   X",
"+oo;;@@$$$$$$$$$#$##########O   ",
"+o;:@$$$$######>>>>>>>>>OOOOOOXX",
"o;,:@@@@@@@>>>>>><<<<<<<>,1::,OX",
"o;,::1,2,2O3333<<<<<<<<>2,1::,O%",
".;,::1,222O3333<<<<<<<<>2,1::,O%",
".;,::1,222O3333<<<<333<O,,1::,O+",
".;,::1,22O###$3<<33####O2,1::,O+",
"o;,::1,2O#####$########OO,1::,Oo",
" ;,::;,2O#####$########OO,;::,Oo",
" ;122;11O#####$########OO1;221O+",
"4;5226665O###$$########OO66225O+",
"%;55567117OO88$$#######O176555O+",
" ;7,,1,,,,,O888$$######O,,1,,7O ",
" ;7221,,,,,,O9***=*====O,,1227O ",
" ;7221,,,,,,O9***=*====O,,1227O ",
" ;7221111117OO88$8$8$$$O111227O ",
"o;7221,,,,,,OO##$######O,,1227OX",
"o;7221,,,,,O8$##$######$O,1227OX",
"%;7221,,,,,O$$#########$O,1227O%",
"%+O77OOOOOOO$$##########OOO77O%%",
"oo&oo&&&& O8$###########O   X%%%",
"%%%%+&&&&oO$$###$#######Oo     .",
" %%++-&--88$$###$#######$O%   X "
};
