/* XPM */
static char *result[] = {
/* columns rows colors chars-per-pixel */
"32 32 29 1 ",
"  c #337803",
". c #337504",
"X c #1A7231",
"o c #196F30",
"O c #141412",
"+ c #317105",
"@ c #5F2E5C",
"# c #932D8B",
"$ c #261A26",
"% c #357B05",
"& c #1B7735",
"* c #F09A53",
"= c #804A1E",
"- c #1D7C37",
"; c #281818",
": c #7C6C5E",
"> c #47280D",
", c #463D35",
"< c #8E5E34",
"1 c #523D2A",
"2 c #3D3122",
"3 c #6E4B2C",
"4 c #CBC3BC",
"5 c #FDFDFD",
"6 c #5C8EA5",
"7 c #3B535E",
"8 c #306D05",
"9 c #332520",
"0 c #432341",
/* pixels */
"  . .   XXXoooOOOOOO.   XX..++  ",
"....   XXXXX O@#####$  XX....++.",
".....XXXXXXXO######@$XXXXX%%%%..",
"......XXXXXO######@$$&&&XXX%%% .",
"%%%%XX&&XXO@@@#####@$&&&ooXX   .",
"%%%++X&&XO##########$ &&&       ",
" %++X&&&O*******=====$&&&&   o  ",
" +   &OO********=====$$--oo  oo ",
".   OO########@#@@@@@@@$$-XX Xo ",
"   O##########@#@@@@@@@@@$$;;XXo",
"..OOOOOO::===>>,,######@@@@$<;Xo",
".O1<<21O::*****::::::$$$$$$$<1;X",
"%O1<<213OO*****=45555O31312<<1;X",
"%O1<<2133O******45555O33312<<1;+",
"oO1<<211O45554*445555O33312<<1;+",
"oO1<<213O5===55445@###O3312<<1;+",
"XO1<<21OO55555544@#####O312<<1;X",
"XO1<<;1OO555555##@#####O31;<<1; ",
"oO233;2OO555555##@#####O22;332; ",
"oO63377OO555555##@@###O6777336;8",
"oO666792O555554#@@00OO92297666;%",
" O911211O45554#@@000O111112119; ",
" O933211O****=*===>O1111112339; ",
" O933211O****=*===>O1111112339; ",
" O933222O@@@0@0@00OO9222222339; ",
".O933211O######@##OO1111112339;X",
".O93321O@######@##@0O111112339;X",
"%O93321O@#########@@O111112339;%",
"%%O99OOO##########@@OOOOOOO99Oo%",
"%%%.   O###########@0O &&&&XX&XX",
"+     XO#######@###@@OX&&&&o%%%%",
" .   %O@#######@###@@00--&-oo%% "
};
