/* XPM */
static char *result[] = {
/* columns rows colors chars-per-pixel */
"32 32 29 1 ",
"  c #337803",
". c #317105",
"X c #337504",
"o c #1A7231",
"O c #141412",
"+ c #196F30",
"@ c #261A26",
"# c #932D8B",
"$ c #5F2E5C",
"% c #357B05",
"& c #1B7735",
"* c #804A1E",
"= c #F09A53",
"- c #1D7C37",
"; c #281818",
": c #8E5E34",
"> c #463D35",
", c #47280D",
"< c #7C6C5E",
"1 c #523D2A",
"2 c #3D3122",
"3 c #6E4B2C",
"4 c #FDFDFD",
"5 c #CBC3BC",
"6 c #306D05",
"7 c #5C8EA5",
"8 c #3B535E",
"9 c #332520",
"0 c #432341",
/* pixels */
"  ..XXoo   XOOOOOO+++ooo   X X  ",
"X..XXXXoo  @#####$O ooooo   XXXX",
"XX%%%%ooooo@$######OoooooooXXXXX",
"X %%%ooo&&&@@$######OoooooXXXXXX",
"X   oo++&&&@$#####$$$Ooo&&oo%%%%",
"       &&& @##########Oo&&o..%%%",
"  +   &&&&@*****=======O&&&o..% ",
" ++  ++--@@*****========OO&   . ",
" +o oo-@@$$$$$$$#$########OO   X",
"+oo;;@@$$$$$$$$$#$##########O   ",
"+o;:@$$$$######>>,,***<<OOOOOOXX",
"o;1:@@@@@@@<<<<<<=====<<O12::1OX",
"o;1::21313O44445*=====OO312::1O%",
".;1::21333O44445======O3312::1O%",
".;1::21333O444455=54445O112::1O+",
".;1::2133O###$45544***4O312::1O+",
"o;1::213O#####$55444444OO12::1Oo",
" ;1::;13O#####$##444444OO1;::1Oo",
" ;233;22O#####$##444444OO2;332O+",
"6;7338887O###$$##444444OO88337O+",
"%;77789229OO00$$#544444O298777O+",
" ;911211111O000$$#54445O112119O ",
" ;9332111111O,***=*====O112339O ",
" ;9332111111O,***=*====O112339O ",
" ;9332222229OO00$0$0$$$O222339O ",
"o;9332111111OO##$######O112339OX",
"o;933211111O0$##$######$O12339OX",
"%;933211111O$$#########$O12339O%",
"%+O99OOOOOOO$$##########OOO99O%%",
"oo&oo&&&& O0$###########O   X%%%",
"%%%%+&&&&oO$$###$#######Oo     .",
" %%++-&--00$$###$#######$O%   X "
};
