/* XPM */
static char *_d0e27e188584b1af3e6dc0cf1447ad2qFrjWDDYfZEcmEpI[] = {
/* columns rows colors chars-per-pixel */
"32 32 21 1 ",
"  c #337803",
". c #317105",
"X c #337504",
"o c #1A7231",
"O c #141412",
"+ c #196F30",
"@ c #261A26",
"# c #932D8B",
"$ c #5F2E5C",
"% c #357B05",
"& c #1B7735",
"* c #804A1E",
"= c #F09A53",
"- c #1D7C37",
"; c #463D35",
": c #47280D",
"> c #7C6C5E",
", c #FDFDFD",
"< c #CBC3BC",
"1 c #306D05",
"2 c #432341",
/* pixels */
"  ..XXoo   XOOOOOO+++ooo   X X  ",
"X..XXXXoo  @#####$O ooooo   XXXX",
"XX%%%%ooooo@$######OoooooooXXXXX",
"X %%%ooo&&&@@$######OoooooXXXXXX",
"X   oo++&&&@$#####$$$Ooo&&oo%%%%",
"       &&& @##########Oo&&o..%%%",
"  +   &&&&@*****=======O&&&o..% ",
" ++  ++--@@*****========OO&   . ",
" +o oo-@@$$$$$$$#$########OO   X",
"+oo&-@@$$$$$$$$$#$##########O   ",
"+oo&@$$$$######;;::***>>OOOOOoXX",
"ooXX@@@@@@@>>>>>>=====>>Oo&XX&&X",
"oXXXoo&&--O,,,,<*=====OOooooXX&%",
".XXoXX&&o-O,,,,<======O&&ooooXo%",
".XoXXo&&ooO,,,,<<=<,,,<O&&&&o+++",
".ooXoo&--O###$,<<,,***,O-&&&ooo+",
"ooooo&&oO#####$<<,,,,,,OO-&&-ooo",
"  o&&&&&O#####$##,,,,,,OO-oooo o",
" ooo+&&&O#####$##,,,,,,OO&&o++ +",
"1oooo+oo&O###$$##,,,,,,OO&+++oo+",
"%%%%oo&o&&OO22$$#<,,,,,O&+o%%%%+",
" %%oo&+o&&&O222$$#<,,,<O&&oo%%% ",
"  oo&++o&&&&O:***=*====O&&&oo%  ",
"   o+oo--&&-O:***=*====O-&--++  ",
"  oooo--oo&oOO22$2$2$$$Ooo&-XXX ",
"ooo&o--oo&&&OO##$######Oo&&&oXXX",
"ooo&&&--&&&O2$##$######$O&&&ooXX",
"%%+&&--o&&&O$$#########$O&&ooo%%",
"%++o&&&&&&oO$$##########O-ooo%%%",
"oo&oo&&&& O2$###########O   X%%%",
"%%%%+&&&&oO$$###$#######Oo     .",
" %%++-&--22$$###$#######$O%   X "
};
