/* XPM */
static char *_349836489414722d2994ec20603cf5clwwBNLKaQRF6uRCh[] = {
/* columns rows colors chars-per-pixel */
"32 32 24 1 ",
"  c #337803",
". c #317105",
"X c #337504",
"o c #1A7231",
"O c #196F30",
"+ c #357B05",
"@ c #1B7735",
"# c #306D05",
"$ c #1D7C37",
"% c #1E7F38",
"& c #1B7131",
"* c #1D7131",
"= c #1E7736",
"- c #207C38",
"; c #1F7C37",
": c #1E7B37",
"> c #714F26",
", c #E2A353",
"< c #4B3921",
"1 c #7F1B1B",
"2 c white",
"3 c #F17474",
"4 c #141412",
"5 c #C53F3F",
/* pixels */
"  ..XXoo   X O    OOOooo   X X  ",
"X..XXXXoo   OOOO    ooooo   XXXX",
"XX++++oooooOOOo    ooooooooXXXXX",
"X +++ooo@@@@@OooooOOooooooXXXXXX",
"X   ooOO@@@@OOo@XXXXoooo@@oo++++",
"       @@@    @XXXXoooOo@@o..+++",
"  O   @@@@o    XXX#   Oo@@@o..+ ",
" OO  OO$$ooo   XX#   oo$$@@   . ",
" Oo oo$$oo@@o  Xo   ooo$oooo   X",
"Ooo@$$$oo@@@@@ oooOOOo$oo@@oo   ",
"Ooo@@@$$@@@@@@@ooo@@@@$$@@@@ooXX",
"ooXXX$$oo@@oo@%%%%O@@$$ooo@XX@@X",
"oXXX&*==-;:$o%%%%OO@@@@@ooooXX@+",
".XXoXX@@o$$$$%%%oo@@@@@@@ooooXo+",
".XoXXo>,,<$$$$$o%%%%O@@@@@@@oOOO",
".ooXo122234$$$@$$%%OO@@$$@@@oooO",
"ooooo132354@$@$$$$oo@@@o$$@@$ooo",
"  o@@@4114$$@@@@@oo@@@@@o$oooo o",
" oooO@1554@@@@@@@@%%%%o@@@@oOO O",
"#oooo132354@@@@@@$%%%OO@@@OOOooO",
"++++13223554%%%%@$$$oo@@@Oo++++O",
" ++1322231334%%%$$$$$$$o@@oo+++ ",
"  132222511334%$$$@$$$oo@@@oo+  ",
"  132222144134o$$@@$$o$$$@$$OO  ",
"  132222444454$@$@@$@$$$oo@$XXX ",
"oo433333444454$$@@@@$$$oo@@@oXXX",
"oo453335144114@@@@@@@@$$@@@@ooXX",
"++O4155111554@@o@@@@@oooo@@ooo++",
"+OOo41111554Ooooooo@oo@@$$ooo+++",
"oo@oo@@@@    @@@o@ooooooo   X+++",
"++++O@@@@o    @oo@@oooo@oo     .",
" ++OO$@$$oo   O   ooo@@$+++   X "
};
