/* XPM */
static char *_9527452a65340e59cd2e364185023f3N7hZkPwSREqBjXjA[] = {
/* columns rows colors chars-per-pixel */
"32 32 14 1 ",
"  c #337803",
". c #317105",
"X c #337504",
"o c #1A7231",
"O c #196F30",
"+ c #357B05",
"@ c #978E84",
"# c #1B7735",
"$ c #BCB2A9",
"% c #655E57",
"& c #1D7C37",
"* c #354344",
"= c #212E2F",
"- c #306D05",
/* pixels */
"  ..XXoo   X O    OOOooo   X X  ",
"X..XXXXoo   OOOO    ooooo   XXXX",
"XX++++oooooOOOo @@@@oooooooXXXXX",
"X +++ooo#####O@@@$$%%%ooooXXXXXX",
"X   ooOO####O@@$$$$$$%%o##oo++++",
"       ###  @@$$$$$$$$%%##o..+++",
"  O   ####o%@$$$$$$$$$%%%##o..+ ",
" OO  OO&&o%%$$$$$$$$$$%%%%#   . ",
" Oo oo&&o%%$$$$$$$$$$@%%%%oo   X",
"Ooo#&&&o%%$$$$$$$$$@@%%%%**oo   ",
"Ooo###&%%$$$$$$$$@@@@%*****#ooXX",
"ooXXX&&%@@$$$$$$$$$$@*******X##X",
"oXXXoo%%$$$$$$$$$$$$%*******XX#+",
".XXoXX%@$$$$$$$$$$$@********=Xo+",
".XoXX%%@@@$$$$$$$$$%******===OOO",
".ooXo%@@@@@@$$$$$$$****=======oO",
"oooo%%@@@@@@@@@$$$@**=========oo",
"  o#%@@@@@@@@@@@@@%============o",
" ooo%@@@@@@@@@@@@%*============O",
"-oo%%@@@@@@@@@@%%%*============O",
"+++%@@@@@@@@@@@@@@=============O",
" ++%@@@@@@@@@@@@@%============= ",
"  o%@@@@@@@@@@@%**============= ",
"   o@@@@@@@@@@%****===========  ",
"  oo@@@@@@@@%%*****===========X ",
"ooo#o@@@@@%%%*******=========XXX",
"ooo###@@%%%%********=======#ooXX",
"++O##&&o%%%**********====##ooo++",
"+OOo######o**********==#&&ooo+++",
"oo#oo####    #******ooooo   X+++",
"++++O####o    #oo##oooo#oo     .",
" ++OO&#&&oo   O   ooo##&+++   X "
};
